# xmcd
#
# Track frame offsets:
#	750
#	15047
#	28511
#	38854
#	52972
#	71485
#	87707
#	102086
#	115357
#	131588
#	142713
#	168020
#
# Disc length: 2248 seconds
#
# Revision: 0
# Processed by: cddbd v1.5.1PL2 Copyright (c) Steve Scherf et al.
# Submitted via: dBpowerAMP V4.0
#
DISCID=8c08be0c
DTITLE=Bandit - A Dream Come True ...
DYEAR=1900
DGENRE=Country
TTITLE0=Here Comes Another Lonely Night
TTITLE1=A Dreaam Come True ...
TTITLE2=Sleepless Wonder
TTITLE3=El Bandido (The great El Tigre)(Remix)
TTITLE4=Don't Let Me Give You A Reason
TTITLE5=Don't Stop Me Now
TTITLE6=I Miss You So (Remix)
TTITLE7=Dum Dee Dum (cartoon mix)
TTITLE8=Could I Be The One? (solo version)
TTITLE9=Come Do The Line Dance (short remix)
TTITLE10=Here Comes AnotherLonely Night (live sudio mix)
TTITLE11=DATA
EXTD=
EXTT0=
EXTT1=
EXTT2=
EXTT3=
EXTT4=
EXTT5=
EXTT6=
EXTT7=
EXTT8=
EXTT9=
EXTT10=
EXTT11=
PLAYORDER=
